<svg xmlns="http://www.w3.org/2000/svg" viewBox="0 0 680 180" fill="none">
  <rect width="680" height="180" rx="16" fill="#0d1117"/>
  <defs><pattern id="g" width="40" height="40" patternUnits="userSpaceOnUse"><path d="M40 0L0 0 0 40" fill="none" stroke="#161b22" stroke-width="1"/></pattern></defs>
  <rect width="680" height="180" fill="url(#g)"/>
  <g transform="translate(30,50)">
    <rect width="80" height="80" rx="14" fill="#1a2332" stroke="#1d9bf0" stroke-width="2"/>
    <circle cx="28" cy="30" r="10" fill="none" stroke="#a371f7" stroke-width="1.5" opacity="0.5"/>
    <text x="28" y="34" font-family="monospace" font-size="9" fill="#a371f7" text-anchor="middle">AI</text>
    <path d="M40 30 L52 30" stroke="#7d8590" stroke-width="1" stroke-dasharray="2,2"/>
    <path d="M50 27 L54 30 L50 33" stroke="#7d8590" stroke-width="1" fill="none"/>
    <path d="M52 24 Q62 18 65 28 Q68 33 62 36 L54 33 Q58 38 50 38 Q46 38 46 34" fill="#1d9bf0" opacity="0.4"/>
    <circle cx="40" cy="58" r="7" fill="none" stroke="#3fb950" stroke-width="1" opacity="0.4"/>
    <path d="M36 58 L38 55 L44 60" stroke="#3fb950" stroke-width="1" fill="none" opacity="0.5"/>
  </g>
  <text x="135" y="76" font-family="'Segoe UI',system-ui,sans-serif" font-size="42" fill="#e6edf3" font-weight="700" letter-spacing="-1">AI Tweet Scheduler</text>
  <text x="137" y="104" font-family="'Segoe UI',system-ui,sans-serif" font-size="14" fill="#7d8590">AI &#x6587;&#x672C;&#x6DA6;&#x8272; | &#x5B9A;&#x65F6;&#x53D1;&#x63A8; | Flask + APScheduler</text>
  <g transform="translate(137,116)">
    <rect width="66" height="22" rx="11" fill="#1a2332" stroke="#a371f7" stroke-width="1"/>
    <text x="33" y="15" font-family="monospace" font-size="10" fill="#a371f7" text-anchor="middle">Python</text>
    <rect x="76" width="60" height="22" rx="11" fill="#1a2332" stroke="#1d9bf0" stroke-width="1"/>
    <text x="106" y="15" font-family="monospace" font-size="10" fill="#1d9bf0" text-anchor="middle">Flask</text>
    <rect x="146" width="82" height="22" rx="11" fill="#1a2332" stroke="#3fb950" stroke-width="1"/>
    <text x="187" y="15" font-family="monospace" font-size="10" fill="#3fb950" text-anchor="middle">Twitter API</text>
  </g>
</svg>