<svg xmlns="http://www.w3.org/2000/svg" viewBox="0 0 680 200" fill="none">
  <rect width="680" height="200" rx="16" fill="#0d1117"/>
  <defs><pattern id="g" width="40" height="40" patternUnits="userSpaceOnUse"><path d="M40 0L0 0 0 40" fill="none" stroke="#161b22" stroke-width="1"/></pattern></defs>
  <rect width="680" height="200" fill="url(#g)"/>
  <g transform="translate(40,40)">
    <rect width="120" height="120" rx="16" fill="#1a2332" stroke="#1d9bf0" stroke-width="2.5"/>
    <circle cx="45" cy="45" r="14" fill="none" stroke="#a371f7" stroke-width="2" opacity="0.5"/>
    <text x="45" y="50" font-family="monospace" font-size="12" fill="#a371f7" text-anchor="middle">AI</text>
    <path d="M62 45 L78 45" stroke="#7d8590" stroke-width="1.5" stroke-dasharray="3,2"/>
    <path d="M75 41 L80 45 L75 49" stroke="#7d8590" stroke-width="1.5" fill="none"/>
    <path d="M75 38 Q90 30 95 42 Q100 48 92 52 L82 48 Q88 55 78 55 Q72 55 72 50" fill="#1d9bf0" opacity="0.4"/>
    <circle cx="60" cy="85" r="10" fill="none" stroke="#3fb950" stroke-width="1.5" opacity="0.4"/>
    <path d="M55 85 L58 82 L65 88" stroke="#3fb950" stroke-width="1.5" fill="none" opacity="0.5"/>
    <text x="60" y="110" font-family="monospace" font-size="8" fill="#1d9bf0" text-anchor="middle" opacity="0.5">SCHEDULE</text>
  </g>
  <text x="195" y="72" font-family="'Segoe UI',system-ui,sans-serif" font-size="40" fill="#e6edf3" font-weight="700" letter-spacing="-1">AI Tweet</text>
  <text x="195" y="118" font-family="'Segoe UI',system-ui,sans-serif" font-size="40" fill="#1d9bf0" font-weight="700" letter-spacing="-1">Scheduler</text>
  <text x="197" y="148" font-family="'Segoe UI',system-ui,sans-serif" font-size="14" fill="#7d8590">&#x5927;&#x6A21;&#x578B;&#x4EA4;&#x4E92; | &#x5B9A;&#x65F6;&#x53D1;&#x63A8; | &#x524D;&#x540E;&#x7AEF;&#x5206;&#x79BB;</text>
  <g transform="translate(197,162)">
    <rect width="66" height="22" rx="11" fill="#1a2332" stroke="#a371f7" stroke-width="1"/>
    <text x="33" y="15" font-family="monospace" font-size="10" fill="#a371f7" text-anchor="middle">Python</text>
    <rect x="76" width="66" height="22" rx="11" fill="#1a2332" stroke="#1d9bf0" stroke-width="1"/>
    <text x="109" y="15" font-family="monospace" font-size="10" fill="#1d9bf0" text-anchor="middle">React</text>
    <rect x="152" width="82" height="22" rx="11" fill="#1a2332" stroke="#3fb950" stroke-width="1"/>
    <text x="193" y="15" font-family="monospace" font-size="10" fill="#3fb950" text-anchor="middle">Twitter API</text>
  </g>
</svg>